<?xml version="1.0" encoding="UTF-8" standalone="no"?>
<!-- Created with Inkscape (http://www.inkscape.org/) -->

<svg
   xmlns:svg="http://www.w3.org/2000/svg"
   xmlns="http://www.w3.org/2000/svg"
   version="1.1"
   width="400"
   height="400"
   id="svg2">
  <title
     id="title3615">Black pear icon</title>
  <defs
     id="defs4" />
  <path
     d="m 306.76251,116.10562 c 10.98588,13.30194 11.83179,28.30527 11.55522,44.84472 -0.93822,17.5459 -7.08053,34.46397 -7.1098,51.91424 -0.0454,27.0892 0.34308,51.33632 -5.23472,76.11745 -9.05004,27.48997 -28.44227,51.53501 -51.36249,68.59338 -19.60913,14.59408 -42.46027,24.49521 -66.26041,24.69493 -17.28477,0.91154 -35.34199,-5.34887 -50.28871,-13.57549 -13.98144,-7.69533 -18.71034,-18.22693 -29.13471,-28.6414 C 96.2256,327.36421 79.24118,320.6302 66.76726,307.26263 53.08167,289.50319 47.70278,266.97495 49.26573,245.10859 c 1.7525,-24.51829 9.92063,-46.82358 25.3222,-66.80646 15.72823,-20.40671 29.16351,-33.37421 54.33337,-42.87715 29.63966,-11.19053 55.87385,-31.49492 85.91883,-44.78747 10.48308,-4.42402 21.10152,-5.03195 32.19674,-3.57842 18.80465,6.64431 24.4516,13.21786 34.98958,-12.28215 2.47131,-9.33273 2.42563,-18.56493 -2.29019,-27.09884 -1.87168,-8.09859 -7.75514,-15.9019 -13.71045,-21.93672 -3.31309,-2.14693 17.10769,-15.42585 18.79998,-5.329 1.39208,7.97543 3.82931,10.95708 4.46865,15.93714 2.73561,9.36928 6.12013,17.0569 4.93134,28.43546 -1.18879,11.37856 -2.63729,28.52962 -0.0728,38.86187 1.31266,5.28877 8.24845,7.80325 12.60957,12.45877 l -4e-5,0 z"
     id="path2892"
     style="fill:#000000;fill-opacity:1;stroke:none" />
</svg>
